<svg width="24" height="24" viewBox="0 0 24 24" fill="none" xmlns="http://www.w3.org/2000/svg">
<path d="M3.5 11V21H20V11H3.5Z" fill="#FFFEFE" stroke="black" stroke-opacity="0.01"/>
<path d="M7 5H3.5V9H20V5H7Z" fill="#FDC42C" stroke="black" stroke-opacity="0.01"/>
<path d="M21 10H3M16 2V6M8 2V6M9 16L11 18L15.5 13.5M7.8 22H16.2C17.8802 22 18.7202 22 19.362 21.673C19.9265 21.3854 20.3854 20.9265 20.673 20.362C21 19.7202 21 18.8802 21 17.2V8.8C21 7.11984 21 6.27976 20.673 5.63803C20.3854 5.07354 19.9265 4.6146 19.362 4.32698C18.7202 4 17.8802 4 16.2 4H7.8C6.11984 4 5.27976 4 4.63803 4.32698C4.07354 4.6146 3.6146 5.07354 3.32698 5.63803C3 6.27976 3 7.11984 3 8.8V17.2C3 18.8802 3 19.7202 3.32698 20.362C3.6146 20.9265 4.07354 21.3854 4.63803 21.673C5.27976 22 6.11984 22 7.8 22Z" stroke="#34B5E7" stroke-width="2" stroke-linecap="round" stroke-linejoin="round"/>
<path d="M9 15C8.20538 15.1386 8 15.5 8 16C7.83358 16.4148 9.07121 17.5288 10.5 19C10.8905 19.2348 11.1094 19.2539 11.5 19L16.2579 14.2421C16.4148 14.0852 16.518 13.8808 16.537 13.6597C16.6189 12.7089 16.4256 12.2962 15.3027 12.4494C15.105 12.4764 14.9246 12.5754 14.7835 12.7165L11 16.5C10.0918 15.6528 9.55868 14.9025 9 15Z" fill="#017A36"/>
</svg>
