<svg width="136" height="31" viewBox="0 0 136 31" fill="none" xmlns="http://www.w3.org/2000/svg">
<path d="M7.54565 14.35C8.38565 14.35 9.02565 14.16 9.46565 13.78C9.92565 13.38 10.1557 12.78 10.1557 11.98C10.1557 11.22 9.91565 10.64 9.43565 10.24C8.97565 9.82 8.29565 9.61 7.39565 9.61C7.07565 9.61 6.80565 9.62 6.58565 9.64C6.38565 9.64 6.17565 9.66 5.95565 9.7V14.35H7.54565ZM5.98565 23.98C5.76565 24.04 5.41565 24.1 4.93565 24.16C4.47565 24.22 4.01565 24.25 3.55565 24.25C3.09565 24.25 2.68565 24.21 2.32565 24.13C1.98565 24.07 1.69565 23.95 1.45565 23.77C1.21565 23.59 1.03565 23.34 0.915652 23.02C0.795652 22.7 0.735652 22.28 0.735652 21.76V7.63C0.735652 7.21 0.845652 6.89 1.06565 6.67C1.30565 6.43 1.62565 6.24 2.02565 6.1C2.70565 5.86 3.47565 5.69 4.33565 5.59C5.21565 5.47 6.09565 5.41 6.97565 5.41C9.73565 5.41 11.8457 6 13.3057 7.18C14.7657 8.36 15.4957 9.96 15.4957 11.98C15.4957 12.96 15.3357 13.85 15.0157 14.65C14.7157 15.43 14.2557 16.11 13.6357 16.69C13.0357 17.25 12.2657 17.69 11.3257 18.01C10.4057 18.31 9.33565 18.46 8.11565 18.46H5.98565V23.98ZM22.9673 24.07C22.7473 24.11 22.4173 24.16 21.9773 24.22C21.5573 24.3 21.1273 24.34 20.6873 24.34C20.2473 24.34 19.8473 24.31 19.4873 24.25C19.1473 24.19 18.8573 24.07 18.6173 23.89C18.3773 23.71 18.1873 23.47 18.0473 23.17C17.9273 22.85 17.8673 22.44 17.8673 21.94V4.54C18.0873 4.5 18.4073 4.45 18.8273 4.39C19.2673 4.31 19.7073 4.27 20.1473 4.27C20.5873 4.27 20.9773 4.3 21.3173 4.36C21.6773 4.42 21.9773 4.54 22.2173 4.72C22.4573 4.9 22.6373 5.15 22.7573 5.47C22.8973 5.77 22.9673 6.17 22.9673 6.67V24.07ZM32.4255 20.86C32.7655 20.86 33.1355 20.83 33.5355 20.77C33.9555 20.69 34.2655 20.59 34.4655 20.47V18.07L32.3055 18.25C31.7455 18.29 31.2855 18.41 30.9255 18.61C30.5655 18.81 30.3855 19.11 30.3855 19.51C30.3855 19.91 30.5355 20.24 30.8355 20.5C31.1555 20.74 31.6855 20.86 32.4255 20.86ZM32.1855 9.07C33.2655 9.07 34.2455 9.18 35.1255 9.4C36.0255 9.62 36.7855 9.96 37.4055 10.42C38.0455 10.86 38.5355 11.43 38.8755 12.13C39.2155 12.81 39.3855 13.62 39.3855 14.56V21.28C39.3855 21.8 39.2355 22.23 38.9355 22.57C38.6555 22.89 38.3155 23.17 37.9155 23.41C36.6155 24.19 34.7855 24.58 32.4255 24.58C31.3655 24.58 30.4055 24.48 29.5455 24.28C28.7055 24.08 27.9755 23.78 27.3555 23.38C26.7555 22.98 26.2855 22.47 25.9455 21.85C25.6255 21.23 25.4655 20.51 25.4655 19.69C25.4655 18.31 25.8755 17.25 26.6955 16.51C27.5155 15.77 28.7855 15.31 30.5055 15.13L34.4355 14.71V14.5C34.4355 13.92 34.1755 13.51 33.6555 13.27C33.1555 13.01 32.4255 12.88 31.4655 12.88C30.7055 12.88 29.9655 12.96 29.2455 13.12C28.5255 13.28 27.8755 13.48 27.2955 13.72C27.0355 13.54 26.8155 13.27 26.6355 12.91C26.4555 12.53 26.3655 12.14 26.3655 11.74C26.3655 11.22 26.4855 10.81 26.7255 10.51C26.9855 10.19 27.3755 9.92 27.8955 9.7C28.4755 9.48 29.1555 9.32 29.9355 9.22C30.7355 9.12 31.4855 9.07 32.1855 9.07ZM51.7439 14.86C51.7439 14.24 51.5639 13.79 51.2039 13.51C50.8639 13.21 50.3939 13.06 49.7939 13.06C49.3939 13.06 48.9939 13.11 48.5939 13.21C48.2139 13.31 47.8839 13.46 47.6039 13.66V24.07C47.4039 24.13 47.0839 24.19 46.6439 24.25C46.2239 24.31 45.7839 24.34 45.3239 24.34C44.8839 24.34 44.4839 24.31 44.1239 24.25C43.7839 24.19 43.4939 24.07 43.2539 23.89C43.0139 23.71 42.8239 23.47 42.6839 23.17C42.5639 22.85 42.5039 22.44 42.5039 21.94V12.94C42.5039 12.4 42.6139 11.96 42.8339 11.62C43.0739 11.28 43.3939 10.97 43.7939 10.69C44.4739 10.21 45.3239 9.82 46.3439 9.52C47.3839 9.22 48.5339 9.07 49.7939 9.07C52.0539 9.07 53.7939 9.57 55.0139 10.57C56.2339 11.55 56.8439 12.92 56.8439 14.68V24.07C56.6439 24.13 56.3239 24.19 55.8839 24.25C55.4639 24.31 55.0239 24.34 54.5639 24.34C54.1239 24.34 53.7239 24.31 53.3639 24.25C53.0239 24.19 52.7339 24.07 52.4939 23.89C52.2539 23.71 52.0639 23.47 51.9239 23.17C51.8039 22.85 51.7439 22.44 51.7439 21.94V14.86Z" fill="#1F0202"/>
<path d="M76.4941 17.38C76.4941 18.46 76.3041 19.45 75.9241 20.35C75.5641 21.23 75.0341 21.99 74.3341 22.63C73.6341 23.25 72.7841 23.73 71.7841 24.07C70.7841 24.41 69.6541 24.58 68.3941 24.58C67.1341 24.58 66.0041 24.41 65.0041 24.07C64.0041 23.73 63.1541 23.25 62.4541 22.63C61.7541 21.99 61.2141 21.23 60.8341 20.35C60.4741 19.45 60.2941 18.46 60.2941 17.38V5.92C60.5141 5.88 60.8641 5.83 61.3441 5.77C61.8241 5.69 62.2841 5.65 62.7241 5.65C63.1841 5.65 63.5841 5.69 63.9241 5.77C64.2841 5.83 64.5841 5.95 64.8241 6.13C65.0641 6.31 65.2441 6.56 65.3641 6.88C65.4841 7.2 65.5441 7.62 65.5441 8.14V17.29C65.5441 18.25 65.8041 19 66.3241 19.54C66.8641 20.08 67.5541 20.35 68.3941 20.35C69.2541 20.35 69.9441 20.08 70.4641 19.54C70.9841 19 71.2441 18.25 71.2441 17.29V5.92C71.4641 5.88 71.8141 5.83 72.2941 5.77C72.7741 5.69 73.2341 5.65 73.6741 5.65C74.1341 5.65 74.5341 5.69 74.8741 5.77C75.2341 5.83 75.5341 5.95 75.7741 6.13C76.0141 6.31 76.1941 6.56 76.3141 6.88C76.4341 7.2 76.4941 7.62 76.4941 8.14V17.38ZM89.576 9.58C88.036 9.58 86.856 10.05 86.036 10.99C85.216 11.93 84.806 13.26 84.806 14.98C84.806 16.72 85.256 18.06 86.156 19C87.076 19.94 88.306 20.41 89.846 20.41C90.666 20.41 91.356 20.3 91.916 20.08C92.496 19.86 93.046 19.61 93.566 19.33C93.906 19.61 94.166 19.95 94.346 20.35C94.546 20.73 94.646 21.18 94.646 21.7C94.646 22.52 94.186 23.22 93.266 23.8C92.366 24.36 90.986 24.64 89.126 24.64C87.786 24.64 86.526 24.45 85.346 24.07C84.166 23.69 83.136 23.11 82.256 22.33C81.376 21.53 80.676 20.53 80.156 19.33C79.656 18.11 79.406 16.66 79.406 14.98C79.406 13.42 79.646 12.05 80.126 10.87C80.626 9.67 81.296 8.66 82.136 7.84C82.996 7.02 83.996 6.4 85.136 5.98C86.276 5.56 87.496 5.35 88.796 5.35C90.636 5.35 92.056 5.65 93.056 6.25C94.076 6.85 94.586 7.62 94.586 8.56C94.586 9.08 94.456 9.53 94.196 9.91C93.936 10.29 93.636 10.59 93.296 10.81C92.776 10.47 92.216 10.18 91.616 9.94C91.036 9.7 90.356 9.58 89.576 9.58Z" fill="#FDC42C"/>
<path d="M101.754 6.46C102.094 6.26 102.604 6.07 103.284 5.89C103.984 5.71 104.684 5.62 105.384 5.62C106.384 5.62 107.264 5.77 108.024 6.07C108.804 6.35 109.304 6.8 109.524 7.42C109.884 8.46 110.274 9.67 110.694 11.05C111.114 12.43 111.534 13.86 111.954 15.34C112.374 16.8 112.784 18.25 113.184 19.69C113.584 21.11 113.934 22.37 114.234 23.47C113.994 23.75 113.634 23.97 113.154 24.13C112.674 24.31 112.104 24.4 111.444 24.4C110.964 24.4 110.554 24.36 110.214 24.28C109.894 24.2 109.624 24.08 109.404 23.92C109.204 23.76 109.034 23.55 108.894 23.29C108.774 23.03 108.664 22.73 108.564 22.39L108.024 20.32H102.594C102.434 20.92 102.274 21.54 102.114 22.18C101.954 22.82 101.794 23.44 101.634 24.04C101.354 24.14 101.054 24.22 100.734 24.28C100.434 24.36 100.064 24.4 99.6241 24.4C98.6041 24.4 97.8441 24.23 97.3441 23.89C96.8641 23.53 96.6241 23.04 96.6241 22.42C96.6241 22.14 96.6641 21.86 96.7441 21.58C96.8241 21.3 96.9141 20.97 97.0141 20.59C97.1541 20.05 97.3441 19.38 97.5841 18.58C97.8441 17.78 98.1241 16.92 98.4241 16C98.7241 15.06 99.0441 14.1 99.3841 13.12C99.7241 12.14 100.044 11.22 100.344 10.36C100.644 9.48 100.914 8.7 101.154 8.02C101.414 7.34 101.614 6.82 101.754 6.46ZM105.354 10.33C105.074 11.17 104.754 12.11 104.394 13.15C104.054 14.17 103.744 15.21 103.464 16.27H107.184C106.904 15.19 106.614 14.14 106.314 13.12C106.034 12.08 105.774 11.15 105.534 10.33H105.354Z" fill="#34B5E7"/>
<path d="M121.793 20.35C122.073 20.43 122.433 20.49 122.873 20.53C123.313 20.55 123.733 20.56 124.133 20.56C124.933 20.56 125.593 20.4 126.113 20.08C126.653 19.74 126.923 19.22 126.923 18.52C126.923 17.86 126.703 17.39 126.263 17.11C125.823 16.83 125.153 16.69 124.253 16.69H121.793V20.35ZM121.793 13.03H123.983C124.843 13.03 125.463 12.87 125.843 12.55C126.243 12.23 126.443 11.76 126.443 11.14C126.443 10.6 126.213 10.17 125.753 9.85C125.313 9.53 124.643 9.37 123.743 9.37C123.443 9.37 123.093 9.38 122.693 9.4C122.313 9.42 122.013 9.45 121.793 9.49V13.03ZM123.743 24.58C123.403 24.58 123.003 24.57 122.543 24.55C122.083 24.53 121.603 24.49 121.103 24.43C120.623 24.37 120.143 24.29 119.663 24.19C119.183 24.11 118.743 23.99 118.343 23.83C117.243 23.41 116.693 22.68 116.693 21.64V7.63C116.693 7.21 116.803 6.89 117.023 6.67C117.263 6.43 117.583 6.24 117.983 6.1C118.663 5.86 119.513 5.69 120.533 5.59C121.553 5.47 122.603 5.41 123.683 5.41C126.243 5.41 128.213 5.84 129.593 6.7C130.973 7.56 131.663 8.89 131.663 10.69C131.663 11.59 131.403 12.37 130.883 13.03C130.363 13.67 129.663 14.14 128.783 14.44C129.783 14.72 130.613 15.23 131.273 15.97C131.953 16.71 132.293 17.64 132.293 18.76C132.293 20.74 131.553 22.21 130.073 23.17C128.613 24.11 126.503 24.58 123.743 24.58Z" fill="#017A36"/>
<path d="M108 20L112 15.5L114.5 24C112.006 24.6253 110.146 24.5194 109 24L108 20Z" fill="#017A36"/>
<path d="M85.1537 12.9161C85.1537 12.9161 80.1049 16.4144 79.5 16C78.8951 15.5856 79.4884 22.4046 86 24.5C90.5613 24.9121 94.0862 24.583 94.6537 21.9161C94.6652 20.5781 94.5487 19.9385 93.6537 19.4161C86.4662 20.5271 84.9933 19.9164 85.1537 12.9161Z" fill="#34B5E7"/>
</svg>
